<svg width="256" height="256" viewBox="0 0 256 256" fill="none" xmlns="http://www.w3.org/2000/svg">
<path fill-rule="evenodd" clip-rule="evenodd" d="M128.947 22.9503C124.465 22.4063 119.932 22.1296 115.371 22.1296L115.251 22.1296C85.3936 22.1613 56.7693 34.0444 35.6678 55.1682C14.5662 76.292 2.71336 104.929 2.71338 134.786C2.71338 164.665 14.5826 193.319 35.71 214.447C56.8374 235.574 85.4923 247.443 115.371 247.443C145.25 247.443 173.904 235.574 195.032 214.447C215.94 193.539 227.781 165.259 228.025 135.717C224.424 139.126 220.486 142.183 216.265 144.832C215.143 156.278 212.072 167.459 207.173 177.889H176.409C177.973 170.966 179.154 163.71 179.917 156.196C178.75 156.25 177.575 156.277 176.394 156.277C173.777 156.277 171.19 156.143 168.642 155.882C167.81 163.57 166.512 170.942 164.816 177.889H121.004V140.419H130.231C121.758 133.808 114.74 125.419 109.738 115.814V129.153H63.2488C63.7264 115.781 65.5988 103.121 68.573 91.6839H68.5752H102.019C101.538 88.2492 101.289 84.74 101.289 81.1727C101.289 80.9202 101.291 80.6679 101.293 80.4159H71.9978C74.2239 74.0554 76.797 68.1837 79.6765 62.9542C88.0853 47.6824 98.6323 38.1291 109.738 35.3758V46.5317C114.486 37.4153 121.048 29.395 128.947 22.9503ZM69.8055 57.5196C73.8453 50.1857 78.5454 43.7237 83.7817 38.4243C61.2615 45.7853 42.2449 60.8002 29.7737 80.4159H60.0899C62.7644 72.0906 66.0202 64.3917 69.8055 57.5196ZM56.9355 91.6839H23.5708L23.5685 91.6861C18.0422 103.452 14.8412 116.175 14.1414 129.156H51.9718C52.4111 115.928 54.1303 103.315 56.9355 91.6839ZM51.9087 140.419H14.1414C14.8412 153.4 18.0422 166.123 23.5685 177.889H56.4015C53.7563 166.227 52.1993 153.613 51.9087 140.419ZM109.738 140.419H63.1744C63.4899 153.746 65.2045 166.398 68.0097 177.889H109.738V140.419ZM59.3711 189.154H29.7737C41.6816 207.882 59.5469 222.438 80.7422 230.121C76.7181 225.506 73.0455 220.191 69.8055 214.311C65.6799 206.819 62.1695 198.358 59.3711 189.154ZM109.738 189.154H71.2182C73.611 196.398 76.459 203.031 79.6765 208.876C87.5625 223.195 97.3277 232.478 107.67 235.857C107.939 235.877 108.207 235.899 108.475 235.922C108.895 235.957 109.315 235.992 109.738 236.015V189.154ZM161.608 189.154H121.004V236.015C122.604 235.931 124.202 235.809 125.796 235.65C135.902 232.101 145.428 222.902 153.152 208.876C156.369 203.031 159.219 196.4 161.608 189.154ZM200.968 189.154H173.446C170.654 198.356 167.146 206.819 163.021 214.311C160.067 219.678 156.752 224.576 153.138 228.902C172.847 220.982 189.575 207.081 200.968 189.154Z" fill="black"/>
<path d="M240.23 81.1733C240.23 116.43 211.648 145.012 176.391 145.012C141.133 145.012 112.552 116.43 112.552 81.1733C112.552 45.9162 141.133 17.3346 176.391 17.3346C211.648 17.3346 240.23 45.9162 240.23 81.1733Z" stroke="black" stroke-width="7.51047"/>
<path d="M157.744 46.1248C160.931 46.1248 163.988 47.3908 166.241 49.6444C168.495 51.8979 169.761 54.9544 169.761 58.1415C169.761 60.3646 169.1 62.4074 168.079 64.1498C168.079 64.1498 163.753 62.9482 157.744 62.9482C151.736 62.9482 147.41 64.1498 147.41 64.1498C146.388 62.4074 145.727 60.3646 145.727 58.1415C145.727 54.9544 146.993 51.8979 149.247 49.6444C151.501 47.3908 154.557 46.1248 157.744 46.1248ZM193.795 46.1248C200.464 46.1248 205.811 51.4722 205.811 58.1415C205.811 60.3646 205.151 62.4074 204.129 64.1498C204.129 64.1498 199.803 62.9482 193.795 62.9482C187.786 62.9482 183.46 64.1498 183.46 64.1498C182.439 62.4074 181.778 60.3646 181.778 58.1415C181.778 51.4722 187.125 46.1248 193.795 46.1248ZM175.769 128.439C186.668 128.448 197.296 125.046 206.164 118.71C213.896 113.186 219.952 105.672 223.713 97.001C224.631 94.8828 223.458 92.4966 221.278 91.7368V91.7368C219.078 90.9703 216.693 92.1532 215.733 94.2755C208.682 109.861 193.099 120.028 175.769 120.028C158.44 120.028 142.857 109.861 135.806 94.2755C134.846 92.1532 132.461 90.9703 130.261 91.7368V91.7368C128.081 92.4966 126.907 94.8828 127.826 97.001C131.586 105.672 137.643 113.186 145.375 118.71C154.243 125.046 164.871 128.448 175.769 128.439Z" fill="black"/>
</svg>
