<svg width="60" height="68" viewBox="0 0 15 17" fill="none" xmlns="http://www.w3.org/2000/svg">
<path d="M6.68848 0.000693206C7.11616 -0.0114099 7.47185 0.135124 7.75293 0.428428C7.77664 0.44076 7.78954 0.464946 7.81348 0.488974C7.86219 0.476848 7.89947 0.477256 7.94824 0.477256C8.58368 0.477516 9.12215 0.844627 9.47656 1.52901C9.58636 1.74871 9.67187 1.95674 9.7207 2.12765C10.0384 2.0299 10.2344 1.96847 10.2344 1.96847C10.2811 1.95302 10.3764 1.94105 10.4648 1.95675V1.95577C10.4926 1.95588 10.5204 1.96559 10.5459 1.97921C10.5658 1.98908 10.5848 2.0016 10.6006 2.01729C10.6989 2.12742 11.6747 3.0693 11.7119 3.10519C11.7396 3.10574 12.9212 3.12956 12.9834 3.1296C13.0444 3.12986 13.1182 3.17901 13.1426 3.26437C13.1595 3.38113 14.575 12.9715 14.9238 15.3347C14.9738 15.6653 15.0002 15.8554 15.002 15.8571L10.4668 16.9821L0 15.1726C0 15.1726 1.24543 5.53869 1.27148 5.18429C1.33261 4.73194 1.34645 4.71967 1.82324 4.57296C1.8565 4.57003 2.51456 4.3633 3.44922 4.07198C3.55923 3.35078 3.91345 2.4212 4.37793 1.6755C5.05024 0.624255 5.86949 0.0253078 6.68848 0.000693206ZM10.4805 13.3786V15.6814H12.7832V13.3786H10.4805ZM6.71289 0.550498C5.45388 0.587564 4.3413 2.56766 4.04785 3.90011C4.48785 3.76566 4.97743 3.61953 5.47852 3.46065C5.63744 2.61712 6.04073 1.74862 6.56641 1.18624C6.76195 0.96626 6.98216 0.795293 7.20215 0.685264C7.06778 0.587541 6.90828 0.550559 6.71289 0.550498ZM7.55664 1.113C7.32445 1.21081 7.11639 1.38185 6.96973 1.54073C6.57854 1.96862 6.26099 2.60473 6.08984 3.25265C6.68873 3.06931 7.28788 2.88567 7.83789 2.71456C7.85011 2.26238 7.80093 1.58976 7.55664 1.113ZM8.14355 1.06417C8.32674 1.553 8.38768 2.13989 8.3877 2.55538C8.68098 2.45762 8.95089 2.37187 9.19531 2.29854C9.07306 1.87075 8.7666 1.16228 8.14355 1.06417Z" fill="white"/>
</svg>
