<svg width="14" height="14" viewBox="0 0 14 14" fill="none" xmlns="http://www.w3.org/2000/svg">
<path fill-rule="evenodd" clip-rule="evenodd" d="M7.5 0.75C7.5 0.335786 7.83579 0 8.25 0H12.1875C12.9124 0 13.5 0.587626 13.5 1.3125V5.25C13.5 5.66421 13.1642 6 12.75 6C12.3358 6 12 5.66421 12 5.25V2.56066L8.78033 5.78033C8.48744 6.07322 8.01256 6.07322 7.71967 5.78033C7.42678 5.48744 7.42678 5.01256 7.71967 4.71967L10.9393 1.5H8.25C7.83579 1.5 7.5 1.16421 7.5 0.75ZM0.75 7.5C1.16421 7.5 1.5 7.83579 1.5 8.25V10.9393L4.71967 7.71967C5.01256 7.42678 5.48744 7.42678 5.78033 7.71967C6.07322 8.01256 6.07322 8.48744 5.78033 8.78033L2.56066 12H5.25C5.66421 12 6 12.3358 6 12.75C6 13.1642 5.66421 13.5 5.25 13.5H1.3125C0.587626 13.5 0 12.9124 0 12.1875V8.25C0 7.83579 0.335786 7.5 0.75 7.5Z" fill="white"/>
</svg>
