<svg width="121" height="34" viewBox="0 0 121 34" fill="none" xmlns="http://www.w3.org/2000/svg">
<path d="M44.5577 27.1722H40.3381V25.2247H40.3056C39.4617 26.6204 37.7089 27.5942 35.4692 27.5942C31.2495 27.5942 27.9062 24.2834 27.9062 18.7004C27.9062 13.1824 31.3794 9.9365 35.4367 9.9365C38.0335 9.9365 39.4617 11.0076 40.2407 11.8191V4.45093H44.5577V27.1722ZM36.5079 13.2798C34.1059 13.2798 32.4505 15.2273 32.4505 18.8303C32.4505 22.4008 34.0735 24.2185 36.5079 24.2185C38.7476 24.2185 40.4354 22.4008 40.4354 18.8303C40.4354 15.2598 38.8449 13.2798 36.5079 13.2798Z" fill="black"/>
<path d="M58.2126 22.3034H62.692C61.5235 25.4844 58.8294 27.5942 54.8369 27.5942C49.4812 27.5942 46.2677 23.7965 46.2677 18.7654C46.2677 13.7342 49.5136 9.9365 54.6097 9.9365C58.7969 9.9365 61.4585 12.4683 62.4648 16.0388C62.7569 17.0775 62.8867 18.246 62.8867 19.5444V19.9663H50.6822C50.9094 22.9526 52.7271 24.186 54.8369 24.186C56.6871 24.186 57.7258 23.2447 58.2126 22.3034ZM54.6097 13.1175C52.37 13.1175 50.8769 14.7729 50.6822 16.9801H58.4723C58.4074 14.7729 56.9467 13.1175 54.6097 13.1175Z" fill="black"/>
<path d="M63.6034 21.6867H67.7257C67.7581 23.6991 69.5434 24.5431 71.426 24.5431C72.7893 24.5431 74.5745 23.9913 74.5745 22.3683C74.5745 21.1673 73.2762 20.8103 70.8093 20.1611L69.3486 19.7716C66.687 19.0575 64.1227 18.1162 64.1227 14.9677C64.1227 11.3972 67.6283 9.96896 71.1988 9.96896C74.9316 9.96896 78.0476 11.3322 78.4047 15.4545H74.3798C74.2499 13.6044 72.9516 12.9877 71.069 12.9877C69.5434 12.9877 68.3099 13.4745 68.3099 14.5781C68.3099 15.7467 69.5758 16.0713 71.3935 16.5257L73.1788 16.9801C75.9703 17.6942 78.924 18.7978 78.924 22.0113C78.924 25.809 75.6457 27.5942 71.3935 27.5942C67.5634 27.5942 63.7981 26.1336 63.6034 21.6867Z" fill="black"/>
<path d="M80.7506 8.18371V4.45093H85.0677V8.18371H80.7506ZM80.7506 27.1722V10.4558H85.0677V27.1722H80.7506Z" fill="black"/>
<path d="M98.6517 23.9588H98.6192C97.9051 24.965 96.2497 25.9713 93.8802 25.9713C89.8877 25.9713 86.5769 23.0499 86.5769 17.9214C86.5769 12.8903 90.0825 9.9365 93.8153 9.9365C96.412 9.9365 97.8726 11.0401 98.6517 11.7867H98.6841V10.4558H102.871V25.9388C102.871 27.3995 102.644 28.3732 102.255 29.2172C101.021 31.8139 98.2622 33.0798 94.7241 33.0798C90.1799 33.0798 87.4208 30.548 87.2261 27.789H91.6081C91.8677 29.0224 93.1012 29.8339 94.9838 29.8339C96.769 29.8339 97.9376 29.1522 98.4245 27.4968C98.5543 27.0424 98.6192 26.4581 98.6192 25.6142V25.4195C98.6192 24.9975 98.6192 24.4781 98.6517 23.9588ZM98.814 17.9214C98.814 14.9676 96.9963 13.2798 94.854 13.2798C92.6792 13.2798 90.8615 15.0326 90.8615 17.9539C90.8615 20.8427 92.6467 22.628 94.854 22.628C96.9963 22.628 98.814 20.9076 98.814 17.9214Z" fill="black"/>
<path d="M112.454 13.4745C111.09 13.4745 110.084 14.1886 109.565 15.3247C109.305 15.909 109.175 16.5906 109.175 18.0513V27.1722H104.858V10.4558H109.013V12.306H109.045C109.824 11.0726 111.512 9.9365 113.947 9.9365C116.576 9.9365 118.848 11.1699 119.692 14.1562C119.919 14.9352 120.049 16.0063 120.049 17.8565V27.1722H115.732V18.1811C115.732 16.5581 115.635 15.909 115.342 15.2273C114.823 14.0913 113.817 13.4745 112.454 13.4745Z" fill="black"/>
<g clip-path="url(#clip0_4655_30039)">
<path fill-rule="evenodd" clip-rule="evenodd" d="M11.4766 0.0012039C12.2076 -0.0196807 12.8135 0.231436 13.2939 0.732649C13.3357 0.753518 13.3567 0.795403 13.3984 0.837141C13.4818 0.816303 13.5446 0.815657 13.6279 0.815657C14.7141 0.815657 15.6335 1.44293 16.2393 2.61253C16.4272 2.9884 16.5737 3.34358 16.6572 3.63597C17.1904 3.47192 17.5223 3.36821 17.5342 3.36449C17.6197 3.336 17.8024 3.30913 17.9629 3.34691C18.0354 3.35591 18.1065 3.39291 18.1611 3.44749C18.2447 3.54147 18.7196 4.00633 19.1738 4.44749C19.6241 4.88483 20.0545 5.29915 20.0625 5.30687C20.0961 5.30755 22.1294 5.34883 22.2344 5.34886C22.2604 5.34886 22.2878 5.35444 22.3145 5.36449C22.3957 5.39478 22.4745 5.46877 22.5059 5.57835C22.5267 5.7243 25.6689 27.0145 25.6807 27.094L17.9316 29.0159L0.0507812 25.9241C0.062393 25.8342 2.18107 9.44871 2.22363 8.85863C2.32805 8.08599 2.34858 8.06432 3.16309 7.8137C3.20486 7.8137 4.33298 7.45859 5.94141 6.95726C6.12946 5.7249 6.73562 4.1376 7.5293 2.86351C8.67807 1.06731 10.0772 0.0431095 11.4766 0.0012039ZM17.958 22.8596V26.7942H21.8916V22.8596H17.958ZM11.5186 0.941634C9.36713 1.00438 7.46624 4.38844 6.96484 6.66527C7.71682 6.4355 8.55277 6.18486 9.40918 5.91331C9.68075 4.47215 10.3695 2.9884 11.2676 2.02757C11.6018 1.65164 11.9785 1.3591 12.3545 1.17113C12.1247 1.00408 11.8527 0.941634 11.5186 0.941634ZM12.96 1.90257C12.5632 2.06965 12.2077 2.36156 11.957 2.63304C11.2886 3.36409 10.7456 4.45082 10.4531 5.55784C11.4766 5.24452 12.5005 4.93133 13.4404 4.6389C13.4613 3.86609 13.3776 2.71713 12.96 1.90257ZM13.9629 1.81859C14.2762 2.65404 14.3799 3.65722 14.3799 4.36741C14.8811 4.20036 15.3411 4.05424 15.7588 3.92894C15.5499 3.19787 15.0279 1.98584 13.9629 1.81859Z" fill="black"/>
</g>
<defs>
<clipPath id="clip0_4655_30039">
<rect width="25.6291" height="29.1399" fill="white" transform="translate(0.0507812)"/>
</clipPath>
</defs>
</svg>
