<svg width="19" height="21" viewBox="0 0 19 21" fill="none" xmlns="http://www.w3.org/2000/svg">
<g clip-path="url(#clip0_71_16467)">
<path d="M12.9616 2.49637C12.9616 2.49637 12.7187 2.56384 12.3196 2.68191C12.2502 2.46264 12.1461 2.20962 12.0073 1.93974C11.5562 1.09637 10.8795 0.640948 10.0813 0.640948C10.0292 0.640948 9.97717 0.640948 9.90776 0.657816C9.89041 0.624081 9.85571 0.607214 9.83836 0.573479C9.49133 0.202394 9.04018 0.0337195 8.50228 0.050587C7.46119 0.0843219 6.42009 0.809623 5.58722 2.10842C4.99726 3.01926 4.54612 4.16625 4.42466 5.06023C3.2274 5.41444 2.39452 5.66746 2.37717 5.68432C1.76986 5.86986 1.75251 5.88673 1.68311 6.44336C1.579 6.86505 0 18.7566 0 18.7566L13.1178 20.9663V2.46264C13.0484 2.4795 12.9963 2.4795 12.9616 2.49637ZM9.92512 3.40721C9.23105 3.60962 8.46758 3.84577 7.72146 4.06504C7.92968 3.27227 8.34612 2.4795 8.83196 1.95661C9.02283 1.77107 9.28311 1.55179 9.57808 1.41685C9.87306 2.02408 9.94247 2.85059 9.92512 3.40721ZM8.51964 0.725286C8.76256 0.725286 8.97078 0.775888 9.14429 0.877093C8.86667 1.01203 8.58904 1.23131 8.32877 1.48432C7.66941 2.17589 7.16621 3.25541 6.95799 4.28432C6.33333 4.46986 5.70868 4.65541 5.13607 4.82408C5.50046 3.22167 6.90594 0.775888 8.51964 0.725286ZM6.4895 10.0024C6.55891 11.0819 9.49133 11.3181 9.66484 13.865C9.7863 15.8723 8.57169 17.2385 6.81918 17.3397C4.70228 17.4747 3.53973 16.2602 3.53973 16.2602L3.99087 14.4048C3.99087 14.4048 5.15343 15.265 6.09041 15.1976C6.69772 15.1638 6.92329 14.6747 6.90594 14.3373C6.81918 12.9205 4.42466 13.0048 4.26849 10.6771C4.12968 8.73733 5.4484 6.76384 8.36347 6.5783C9.49133 6.51083 10.0639 6.78071 10.0639 6.78071L9.40457 9.20962C9.40457 9.20962 8.65845 8.87227 7.77352 8.93974C6.4895 9.02408 6.47215 9.81685 6.4895 10.0024ZM10.6192 3.2048C10.6192 2.69878 10.5498 1.97348 10.3069 1.36625C11.105 1.51806 11.4868 2.3783 11.6603 2.90119C11.3479 2.98553 11.0009 3.08673 10.6192 3.2048Z" fill="black"/>
<path d="M13.5515 20.8988L18.9999 19.5832C18.9999 19.5832 16.6575 4.18317 16.6401 4.08197C16.6227 3.98076 16.536 3.91329 16.4492 3.91329C16.3625 3.91329 14.8355 3.87956 14.8355 3.87956C14.8355 3.87956 13.8985 3.00245 13.5515 2.6651V20.8988Z" fill="black"/>
</g>
<defs>
<clipPath id="clip0_71_16467">
<rect width="19" height="21" fill="white"/>
</clipPath>
</defs>
</svg>
