<svg width="52" height="14" viewBox="0 0 52 14" fill="none" xmlns="http://www.w3.org/2000/svg">
<path fill-rule="evenodd" clip-rule="evenodd" d="M5.22741 0.00055164C5.56188 -0.00900487 5.83905 0.105729 6.05885 0.335085C6.07794 0.344642 6.08755 0.363668 6.10664 0.382766C6.14486 0.373215 6.17356 0.373208 6.21178 0.373208C6.7087 0.373219 7.12919 0.659953 7.40632 1.1951C7.49233 1.36711 7.55926 1.52965 7.59749 1.66344C7.84446 1.58745 7.99701 1.53975 7.99882 1.53919C8.03784 1.52618 8.12115 1.51316 8.19448 1.53029C8.22723 1.53424 8.259 1.5516 8.28391 1.57599C8.28442 1.57648 8.28506 1.57692 8.28556 1.57742C8.3036 1.5977 8.36133 1.65552 8.43904 1.73211C8.69057 1.98003 9.15138 2.42426 9.15502 2.42776C9.15502 2.42776 10.1012 2.44688 10.149 2.44688C10.1967 2.4469 10.254 2.48516 10.2731 2.55202C10.2825 2.61793 11.6837 12.1111 11.7247 12.3891C11.7255 12.3932 11.7259 12.3954 11.7259 12.3954L8.18042 13.2746L0 11.8602C0.00262096 11.8399 0.974846 4.31975 0.993933 4.05253C1.04171 3.69894 1.05124 3.68941 1.42394 3.57473C1.44328 3.57466 1.95926 3.41216 2.69495 3.18285C2.78096 2.61902 3.05811 1.89273 3.42125 1.30979C3.94685 0.487947 4.58713 0.0196752 5.22741 0.00055164ZM8.1924 10.2332V12.0332H9.9924V10.2332H8.1924ZM5.24652 0.430557C4.26222 0.459245 3.39255 2.00738 3.16318 3.04904C3.50722 2.94392 3.88955 2.82929 4.28137 2.70506C4.4056 2.04568 4.72091 1.36718 5.13182 0.927578C5.28473 0.755561 5.45683 0.621704 5.62885 0.535696C5.52372 0.459244 5.39943 0.430557 5.24652 0.430557ZM5.90592 0.870229C5.72437 0.946679 5.56191 1.08043 5.44724 1.20465C5.14144 1.53913 4.89296 2.03608 4.75917 2.54257C5.22743 2.39922 5.69572 2.25591 6.12576 2.12212C6.13531 1.76853 6.09704 1.24293 5.90592 0.870229ZM6.36471 0.831997C6.50805 1.21425 6.55576 1.67296 6.55576 1.99787C6.78511 1.92142 6.99536 1.85448 7.18649 1.79715C7.09092 1.46267 6.85203 0.908479 6.36471 0.831997Z" fill="white"/>
<path d="M12.5444 9.9702H14.4362C14.4511 10.8937 15.2704 11.281 16.1343 11.281C16.7599 11.281 17.5792 11.0278 17.5792 10.283C17.5792 9.73187 16.9834 9.56801 15.8513 9.2701L15.181 9.09135C13.9595 8.76364 12.7828 8.33166 12.7828 6.88678C12.7828 5.24824 14.3915 4.59283 16.03 4.59283C17.7431 4.59283 19.173 5.21845 19.3369 7.11021H17.4898C17.4302 6.26115 16.8344 5.97813 15.9705 5.97813C15.2704 5.97813 14.7043 6.20157 14.7043 6.70803C14.7043 7.24427 15.2853 7.39323 16.1194 7.60177L16.9387 7.81031C18.2197 8.13802 19.5752 8.64447 19.5752 10.1192C19.5752 11.862 18.0708 12.6812 16.1194 12.6812C14.3617 12.6812 12.6338 12.0109 12.5444 9.9702Z" fill="white"/>
<path d="M19.7002 6.18667V4.81626H20.6684V2.44784H22.6496V4.81626H24.02V6.18667H22.6496V10.0596C22.6496 10.9384 22.873 11.0278 23.6327 11.0278H24.0498V12.4876H23.1113C22.307 12.4876 21.9942 12.4727 21.7409 12.4131C21.1451 12.279 20.8174 11.9364 20.7131 11.2065C20.6833 11.0129 20.6684 10.7597 20.6684 10.432V6.18667H19.7002Z" fill="white"/>
<path d="M28.1846 11.0576C29.0039 11.0576 29.6593 10.4915 29.6593 9.16583V4.81626H31.6405V12.4876H29.7338V11.6385H29.7189C29.3614 12.2046 28.6166 12.6812 27.4994 12.6812C26.2929 12.6812 25.28 12.1152 24.8927 10.7448C24.7884 10.3873 24.7288 9.89572 24.7288 9.04666V4.81626H26.71V9.04666C26.71 9.41905 26.7397 9.73187 26.7993 9.9553C27.0079 10.7746 27.5441 11.0576 28.1846 11.0576Z" fill="white"/>
<path d="M40.1138 12.4876H38.1774V11.5938H38.1625C37.7752 12.2344 36.9708 12.6812 35.943 12.6812C34.0066 12.6812 32.4723 11.1619 32.4723 8.59979C32.4723 6.06751 34.0661 4.57793 35.9281 4.57793C37.1198 4.57793 37.7752 5.06949 38.1327 5.44189V2.06055H40.1138V12.4876ZM36.4197 6.1122C35.3174 6.1122 34.5577 7.00594 34.5577 8.65937C34.5577 10.2979 35.3025 11.1321 36.4197 11.1321C37.4475 11.1321 38.2221 10.2979 38.2221 8.65937C38.2221 7.02084 37.4922 6.1122 36.4197 6.1122Z" fill="white"/>
<path d="M41.4136 3.77356V2.06055H43.3947V3.77356H41.4136ZM41.4136 12.4876V4.81626H43.3947V12.4876H41.4136Z" fill="white"/>
<path d="M48.0668 12.6961C45.6387 12.6961 44.2088 10.9682 44.2088 8.64447C44.2088 6.32074 45.7281 4.59283 48.0668 4.59283C50.4054 4.59283 51.9248 6.32074 51.9248 8.64447C51.9248 10.9682 50.465 12.6961 48.0668 12.6961ZM48.0668 6.12709C46.9645 6.12709 46.2346 7.06552 46.2346 8.67427C46.2346 10.2979 46.9496 11.147 48.0668 11.147C49.1839 11.147 49.8989 10.2979 49.8989 8.67427C49.8989 7.06552 49.169 6.12709 48.0668 6.12709Z" fill="white"/>
</svg>
